<?xml version="1.0" standalone="no"?>
<!DOCTYPE svg PUBLIC "-//W3C//DTD SVG 20010904//EN"
 "http://www.w3.org/TR/2001/REC-SVG-20010904/DTD/svg10.dtd">
<svg version="1.0" xmlns="http://www.w3.org/2000/svg"
 width="542.000000pt" height="571.000000pt" viewBox="0 0 542.000000 571.000000"
 preserveAspectRatio="xMidYMid meet">
<metadata>
Created by potrace 1.16, written by Peter Selinger 2001-2019
</metadata>
<g transform="translate(0.000000,571.000000) scale(0.100000,-0.100000)"
fill="#000000" stroke="none">
<path d="M2695 5698 c-2 -7 -6 -85 -9 -173 -17 -464 -57 -1402 -64 -1478 l-7
-89 -395 -199 c-217 -109 -400 -206 -406 -214 -6 -8 -32 -86 -58 -172 -25 -86
-54 -165 -64 -176 -9 -10 -49 -43 -88 -72 -67 -51 -71 -56 -83 -112 -40 -176
-33 -167 -224 -328 -122 -104 -180 -160 -199 -194 -27 -47 -33 -51 -180 -116
l-151 -68 -136 7 -137 7 -234 -199 c-129 -109 -241 -206 -248 -215 -11 -13 1
-27 93 -101 l107 -86 393 0 c253 0 395 4 397 10 2 5 57 -26 123 -70 83 -56
129 -80 150 -80 17 0 138 18 269 39 267 43 253 37 302 133 17 33 31 48 44 48
19 0 20 -7 20 -106 l0 -107 36 -44 36 -44 -50 -82 -50 -81 26 -31 c51 -59 92
-85 136 -85 38 0 47 -6 115 -74 l74 -74 -6 -55 -7 -54 100 -66 c66 -44 101
-74 105 -89 2 -13 13 -85 24 -161 l20 -139 58 -66 c33 -37 62 -72 66 -79 4 -6
12 -67 17 -134 l10 -124 52 -52 c29 -29 57 -53 63 -53 6 0 34 24 62 53 l51 52
12 139 c11 148 9 140 81 227 35 43 37 49 58 199 13 85 25 158 29 161 4 4 49
34 101 69 l93 62 -6 51 -7 52 78 76 c71 70 82 77 126 82 40 4 57 12 89 43 64
62 64 62 4 157 l-53 85 31 31 c30 31 31 34 36 143 3 69 9 113 16 115 6 2 30
-28 53 -67 27 -45 50 -71 64 -75 12 -2 123 -20 247 -40 124 -19 235 -37 248
-39 15 -2 60 23 144 81 68 46 124 79 126 73 3 -7 135 -10 397 -10 l393 0 100
79 c55 44 102 83 105 88 8 13 -54 71 -286 267 l-197 167 -139 -7 -140 -7 -151
69 c-148 67 -152 70 -176 116 -13 26 -47 65 -77 90 -235 192 -297 251 -308
292 -6 22 -21 77 -33 121 l-21 79 -85 65 -85 65 -43 150 c-24 83 -49 162 -55
176 -9 19 -102 70 -410 225 -298 150 -398 205 -402 220 -3 17 -48 996 -71
1573 -5 129 -9 162 -21 162 -7 0 -15 -6 -18 -12z m-32 -2501 l27 -23 -2 -179
-3 -179 -37 55 -38 54 7 148 c3 81 9 147 12 147 3 -1 18 -11 34 -23z m112
-325 c-20 -29 -39 -52 -41 -52 -2 0 -4 80 -4 178 l0 177 33 21 32 21 9 -147 8
-147 -37 -51z m-785 -368 c15 -13 79 -37 156 -59 131 -37 132 -37 155 -78 12
-23 41 -62 63 -86 l41 -44 -46 26 c-34 20 -54 26 -76 21 -25 -5 -57 8 -172 66
-137 69 -141 72 -141 103 0 18 -12 50 -27 72 -26 40 -26 40 -2 20 13 -11 35
-29 49 -41z m1485 14 c-14 -24 -25 -55 -25 -70 0 -26 -11 -33 -141 -98 -119
-60 -145 -70 -174 -64 -25 4 -41 1 -62 -13 -48 -33 -59 -37 -31 -9 15 14 46
53 68 86 44 64 30 58 235 116 38 10 76 30 105 55 25 21 46 38 47 39 1 0 -9
-19 -22 -42z m-2042 -463 c13 -27 14 -37 4 -40 -6 -2 -70 -19 -141 -39 -71
-19 -132 -40 -137 -47 -4 -7 -12 -39 -19 -73 l-12 -61 40 -35 c22 -20 58 -48
80 -64 l41 -28 183 26 c101 15 195 29 209 32 20 4 33 19 54 64 16 33 33 60 37
60 13 0 68 -29 68 -36 0 -3 -17 -34 -37 -69 l-38 -63 -190 -31 c-104 -17 -218
-34 -253 -38 l-62 -6 -115 77 c-130 86 -125 76 -102 211 l12 70 170 62 c94 34
175 62 181 62 6 1 18 -15 27 -34z m2762 -28 l170 -62 17 -99 c10 -55 17 -100
15 -101 -1 -1 -56 -38 -122 -82 l-120 -81 -245 39 c-134 21 -250 45 -256 51
-7 7 -26 39 -44 70 l-31 57 30 15 c16 9 34 16 38 16 5 0 21 -25 36 -55 16 -33
36 -59 50 -64 12 -5 107 -20 210 -35 l189 -27 51 35 c29 20 65 47 81 59 l29
24 -11 69 c-6 38 -18 74 -26 80 -9 6 -71 26 -138 44 -68 18 -127 36 -132 41
-11 10 12 69 28 68 6 0 88 -28 181 -62z m-1615 -165 l105 -29 3 -124 3 -125
-46 -22 c-25 -12 -47 -22 -49 -22 -2 0 -38 42 -80 94 -58 71 -76 101 -76 124
0 47 -16 78 -50 99 l-31 18 28 6 c53 12 88 9 193 -19z m444 22 l47 -7 -40 -24
c-36 -21 -40 -28 -47 -79 -6 -50 -14 -64 -80 -145 -41 -49 -77 -89 -81 -89 -3
0 -26 11 -50 25 l-43 26 0 119 0 119 68 20 c153 45 152 45 226 35z m-814 -38
c0 -3 -5 -17 -11 -33 -6 -15 -10 -79 -10 -141 1 -96 -1 -114 -15 -119 -10 -4
-22 0 -28 9 -18 26 -91 246 -84 254 4 4 36 12 70 19 81 16 78 16 78 11z m1103
-16 c31 -6 57 -13 57 -15 0 -7 -91 -259 -95 -263 -2 -2 -13 -1 -24 3 -20 6
-20 11 -15 108 5 79 2 112 -10 145 -15 42 -15 42 7 37 12 -2 48 -9 80 -15z
m-975 -181 c29 -10 41 -32 42 -74 0 -11 27 -54 60 -95 54 -68 60 -80 60 -122
0 -64 -13 -94 -50 -113 -18 -9 -33 -15 -35 -13 -1 2 -40 57 -85 123 -90 132
-88 123 -60 253 12 55 18 59 68 41z m812 -41 c28 -130 30 -121 -60 -256 -53
-81 -85 -120 -93 -116 -63 37 -67 43 -67 108 0 61 2 66 51 127 56 70 69 96 69
139 0 22 6 31 28 38 52 20 60 16 72 -40z m281 -135 c8 -9 31 -43 51 -77 l38
-61 -41 -41 c-34 -35 -49 -42 -92 -47 -48 -6 -57 -12 -133 -88 l-82 -82 5 -52
6 -52 -94 -63 c-52 -34 -96 -64 -98 -66 -3 -3 -15 -77 -27 -165 -22 -158 -23
-163 -56 -195 l-34 -34 4 42 c2 24 19 80 39 124 l35 82 -97 178 c-99 183 -112
204 -125 204 -8 0 -210 -373 -210 -389 0 -6 16 -40 35 -76 32 -58 36 -73 33
-127 l-3 -62 -43 51 -42 51 -21 154 c-23 174 -16 161 -144 241 l-77 49 7 57 7
58 -82 74 c-82 75 -102 86 -155 88 -20 1 -42 14 -71 42 l-42 41 45 75 46 75
86 -7 c47 -3 93 -8 102 -11 9 -2 56 -63 104 -135 49 -72 95 -133 101 -136 7
-2 37 11 67 31 l55 35 7 65 c5 43 12 66 20 66 7 0 45 -43 84 -95 39 -52 78
-95 85 -95 8 0 42 43 75 95 34 52 68 95 75 95 8 0 16 -24 22 -67 9 -65 10 -67
58 -100 26 -18 53 -33 60 -33 6 0 52 61 101 135 l90 134 55 7 c30 3 71 10 90
14 54 12 66 11 81 -7z m-742 -1211 c-18 -40 -34 -70 -37 -68 -2 3 -10 85 -17
183 -11 168 -14 182 -43 240 -18 34 -32 67 -32 73 0 6 35 76 78 156 l77 144 3
-327 2 -328 -31 -73z m187 501 l36 -66 -35 -81 c-32 -73 -36 -93 -41 -201 -4
-66 -9 -144 -13 -174 l-6 -55 -33 65 -33 64 0 340 -1 340 45 -83 c24 -45 61
-113 81 -149z m-102 -684 l-38 -39 -40 39 -39 39 39 76 39 76 38 -77 39 -76
-38 -38z"/>
</g>
</svg>
