<?xml version="1.0" standalone="no"?>
<!DOCTYPE svg PUBLIC "-//W3C//DTD SVG 20010904//EN"
 "http://www.w3.org/TR/2001/REC-SVG-20010904/DTD/svg10.dtd">
<svg version="1.0" xmlns="http://www.w3.org/2000/svg"
 width="542.000000pt" height="571.000000pt" viewBox="0 0 542.000000 571.000000"
 preserveAspectRatio="xMidYMid meet">
<metadata>
Created by potrace 1.16, written by Peter Selinger 2001-2019
</metadata>
<g transform="translate(0.000000,571.000000) scale(0.100000,-0.100000)"
fill="#000000" stroke="none">
<path d="M2650 5063 c-356 -19 -422 -29 -550 -81 -244 -98 -443 -221 -512
-316 -38 -53 -37 -96 7 -191 52 -116 158 -403 211 -574 46 -149 47 -153 34
-206 -17 -71 -3 -142 50 -253 43 -91 65 -185 76 -334 6 -93 5 -100 -17 -135
-41 -63 -49 -91 -49 -166 1 -89 12 -146 46 -219 l27 -56 -21 -35 c-15 -23 -26
-69 -36 -145 -9 -67 -28 -146 -47 -199 -78 -218 -119 -357 -119 -403 0 -27 7
-82 16 -122 21 -96 20 -113 -22 -238 -37 -110 -108 -252 -175 -352 -41 -60
-96 -97 -167 -113 -51 -11 -74 -55 -65 -125 10 -80 6 -100 -26 -145 -92 -129
-105 -247 -38 -346 17 -25 38 -40 82 -55 33 -12 96 -40 140 -62 115 -58 293
-124 340 -125 38 -1 115 32 260 113 98 54 335 274 335 310 0 50 182 242 295
312 33 20 83 52 110 72 28 20 77 53 110 73 33 20 101 61 150 91 50 30 158 90
240 133 159 83 190 91 416 114 l67 7 17 82 c9 44 27 104 40 131 35 77 190 242
301 321 95 68 165 146 212 240 28 56 116 379 147 542 21 108 19 129 -20 251
-25 77 -35 126 -35 172 0 35 -13 131 -30 214 -16 82 -41 211 -55 285 -46 242
-149 587 -226 761 -60 134 -173 341 -202 371 -75 75 -376 225 -540 268 -40 11
-106 30 -147 44 -146 47 -446 100 -542 94 -18 -1 -58 -3 -88 -5z m384 -128
c38 -8 80 -22 93 -30 20 -13 31 -14 55 -6 49 17 122 14 140 -6 25 -28 78 -138
78 -161 0 -32 -16 -35 -43 -8 -29 29 -99 66 -125 66 -10 0 -22 4 -28 10 -5 5
-64 18 -129 29 -66 10 -154 25 -195 31 -129 21 -177 14 -288 -45 -69 -37 -119
-44 -162 -22 -14 7 -26 21 -28 32 -2 11 -15 32 -29 47 -30 32 -24 62 15 77 41
16 558 5 646 -14z m-704 -116 c0 -10 -9 -26 -19 -36 -10 -10 -25 -38 -32 -62
-7 -23 -18 -45 -24 -47 -6 -3 -38 9 -71 27 -53 28 -65 30 -119 25 -56 -5 -128
4 -143 18 -3 4 2 14 11 24 15 15 19 15 27 2 7 -12 15 -11 53 8 24 12 49 22 56
22 6 0 23 7 37 16 20 14 29 15 48 5 18 -10 33 -9 79 7 32 10 60 22 64 25 10
10 33 -13 33 -34z m1436 -77 c77 -50 106 -81 124 -133 11 -31 22 -45 40 -49
14 -3 26 -15 30 -31 4 -14 13 -36 21 -50 7 -13 17 -64 21 -114 12 -132 14
-143 25 -157 18 -24 33 -80 33 -129 0 -26 4 -49 10 -51 8 -3 5 -25 -11 -87 -5
-17 16 -29 147 -81 l101 -41 41 -187 c23 -103 44 -203 47 -223 l7 -36 -99 -6
c-109 -6 -128 -11 -138 -35 -4 -9 -15 -93 -25 -186 -14 -123 -23 -173 -35
-185 -11 -11 -39 -17 -93 -19 -73 -4 -81 -2 -152 35 -203 106 -432 239 -517
299 -34 24 -66 44 -72 44 -28 0 -14 25 54 91 61 59 75 78 75 103 0 38 -37 120
-75 164 -16 19 -24 37 -19 42 5 5 50 23 99 41 50 17 158 66 240 108 l150 76
103 -1 c113 -2 123 4 72 49 -27 24 -30 33 -30 85 0 51 -9 92 -43 185 -5 15
-26 43 -45 62 -27 26 -33 38 -25 46 8 8 13 5 18 -10 8 -26 25 -28 25 -3 0 10
-12 29 -26 43 -33 30 -54 71 -54 102 0 15 -10 31 -25 41 -19 13 -25 25 -25 55
0 23 -12 62 -30 97 -49 97 -38 106 56 46z m-811 -1045 c44 -44 75 -145 75
-242 0 -72 0 -73 -40 -109 -23 -20 -45 -34 -50 -31 -5 3 4 27 20 52 26 41 30
56 30 120 0 85 -27 167 -70 213 -39 42 -8 40 35 -3z m324 -22 c34 -39 81 -125
81 -149 0 -8 -17 -29 -37 -48 -20 -18 -59 -54 -87 -79 -64 -58 -89 -71 -148
-79 -43 -6 -46 -5 -34 9 11 12 13 37 9 106 l-6 90 57 49 c31 26 70 68 87 92
16 24 34 44 38 44 5 0 23 -16 40 -35z m-529 12 c0 -8 -8 -21 -18 -31 -11 -9
-24 -34 -31 -55 -6 -21 -18 -44 -26 -51 -22 -18 -18 -64 6 -86 12 -10 29 -35
39 -55 11 -20 35 -50 54 -67 19 -16 32 -33 29 -36 -4 -3 -41 -6 -84 -6 l-77 0
-76 86 c-42 48 -76 94 -76 102 0 26 70 142 97 159 30 20 120 52 146 53 9 0 17
-6 17 -13z m131 -42 c26 -14 49 -49 49 -76 0 -5 -22 -9 -48 -9 -41 0 -53 -5
-80 -33 -32 -33 -32 -34 -17 -70 10 -25 12 -38 4 -43 -22 -13 -30 15 -32 105
-2 90 -1 93 26 117 33 28 56 30 98 9z m1378 -424 c20 -39 36 -112 47 -223 6
-66 6 -67 -46 -167 -29 -55 -63 -110 -76 -122 l-24 -22 0 84 c0 46 5 100 10
119 6 19 15 101 20 181 13 202 27 233 69 150z m-2139 -142 c0 -37 20 -91 42
-116 24 -26 16 -43 -18 -43 -20 0 -29 -8 -41 -40 -19 -46 -28 -45 -36 7 -8 48
12 226 27 235 14 9 26 -10 26 -43z m596 -236 c-5 -50 -13 -73 -27 -85 -17 -14
-19 -24 -14 -50 8 -33 14 -42 80 -111 l37 -37 -39 -16 c-21 -9 -54 -19 -73
-21 -33 -5 -38 -1 -87 59 -28 34 -63 74 -77 87 -14 14 -26 30 -26 37 0 8 34
42 77 76 42 35 92 78 112 95 20 18 38 33 40 33 2 0 0 -30 -3 -67z m1542 -355
c6 -13 13 -42 16 -66 6 -41 66 -169 94 -200 19 -21 11 -43 -20 -55 -11 -4 -21
-27 -30 -67 -9 -45 -16 -60 -28 -58 -11 3 -17 23 -22 82 -4 43 -15 104 -24
135 -17 56 -30 224 -19 242 10 15 21 10 33 -13z m-2212 -28 c16 -6 63 -13 104
-18 l75 -7 12 -55 c28 -129 64 -364 73 -475 5 -66 14 -134 20 -151 13 -36 128
-142 134 -122 2 7 22 103 46 213 66 318 81 373 99 396 37 46 38 14 5 -131 -18
-80 -41 -179 -50 -220 -20 -91 -83 -292 -94 -304 -5 -5 -36 18 -73 53 -50 48
-67 72 -80 114 -25 82 -97 543 -97 621 0 39 -3 46 -13 38 -9 -8 -32 -7 -82 3
-85 18 -175 44 -175 50 0 9 67 5 96 -5z m6 -56 c131 -30 134 -33 148 -116 6
-40 25 -152 41 -248 61 -355 57 -344 169 -455 40 -40 63 -56 70 -49 13 13 95
286 116 384 41 198 76 329 93 344 20 18 183 61 273 71 l57 7 49 -49 c43 -43
51 -58 70 -133 12 -47 36 -119 53 -160 17 -41 42 -110 57 -152 23 -69 29 -78
60 -90 l34 -13 -93 -105 c-51 -58 -122 -145 -157 -193 -36 -49 -68 -85 -72
-80 -3 4 -29 40 -58 78 -86 119 -68 116 -223 35 -74 -38 -145 -82 -157 -97
-36 -42 -59 -99 -81 -198 -27 -121 -62 -240 -103 -355 -33 -92 -35 -95 -88
-126 -30 -18 -56 -32 -56 -31 -1 1 -59 87 -128 190 l-127 189 47 -4 47 -3 17
65 c10 36 36 137 59 225 23 88 46 172 52 187 10 25 6 37 -52 133 l-64 105
-123 65 c-68 36 -127 65 -133 65 -21 0 -41 -77 -48 -179 l-7 -106 -12 80 -12
81 59 174 c32 96 66 195 75 218 15 41 27 106 41 215 7 54 6 54 107 31z m1882
-70 c0 -22 -11 -66 -24 -97 l-24 -57 -23 22 c-13 12 -37 43 -54 69 -26 41 -28
50 -18 68 19 29 48 40 99 38 l45 -2 -1 -41z m-369 -14 l60 -25 8 -129 c5 -71
6 -138 3 -150 -7 -30 -55 -77 -162 -157 -78 -58 -98 -69 -132 -69 -34 0 -41 4
-50 28 -87 233 -115 311 -136 384 -25 83 -40 110 -68 121 -10 4 -9 8 2 17 10
7 79 10 215 8 186 -3 204 -5 260 -28z m-1680 -734 c-9 -146 -41 -283 -77 -321
-15 -17 -53 -80 -84 -140 -63 -123 -72 -137 -85 -129 -21 12 -5 66 50 174 76
148 105 233 136 388 32 161 31 158 50 142 13 -11 15 -31 10 -114z m-440 -997
c77 -13 116 -39 171 -116 80 -112 176 -171 290 -181 110 -8 206 26 369 132
111 73 126 80 119 62 -6 -16 -189 -187 -246 -230 -54 -40 -287 -156 -315 -156
-66 0 -139 60 -223 184 -52 77 -104 122 -156 135 -90 23 -134 -9 -113 -81 11
-41 12 -38 -5 -38 -7 0 -26 19 -42 42 -25 36 -29 50 -29 112 0 56 5 80 24 113
26 46 20 45 156 22z m31 -218 c26 -12 57 -40 86 -77 46 -60 72 -103 66 -109
-2 -1 -57 21 -123 51 -125 55 -145 72 -145 127 0 25 3 27 38 27 20 0 55 -9 78
-19z"/>
</g>
</svg>
